<?xml version="1.0" standalone="no"?>
<!DOCTYPE svg PUBLIC "-//W3C//DTD SVG 20010904//EN"
 "http://www.w3.org/TR/2001/REC-SVG-20010904/DTD/svg10.dtd">
<svg version="1.0" xmlns="http://www.w3.org/2000/svg"
 width="648.000000pt" height="657.000000pt" viewBox="0 0 648.000000 657.000000"
 preserveAspectRatio="xMidYMid meet">
<metadata>
Created by potrace 1.16, written by Peter Selinger 2001-2019
</metadata>
<g transform="translate(0.000000,657.000000) scale(0.100000,-0.100000)"
fill="#000000" stroke="none">
<path d="M3214 6203 c18 -5 18 -73 11 -2916 l-7 -2910 118 7 c195 11 464 49
589 82 212 56 407 130 597 225 142 71 166 84 308 177 365 239 701 598 922 987
222 391 339 786 379 1279 26 324 -35 755 -160 1116 -136 395 -373 777 -667
1076 -106 107 -208 199 -289 260 -27 21 -52 41 -55 45 -7 10 -237 159 -295
191 -396 221 -762 333 -1220 373 -163 14 -271 18 -231 8z m1226 -742 c67 -21
156 -71 176 -100 7 -9 22 -27 33 -41 60 -67 115 -227 106 -303 l-7 -52 76 -89
c42 -48 76 -95 76 -104 0 -8 -18 -31 -39 -51 -32 -30 -38 -41 -34 -63 3 -15 2
-36 -2 -45 -4 -10 -8 -31 -9 -48 -1 -16 -4 -34 -6 -40 -2 -5 0 -31 4 -58 10
-55 -4 -98 -39 -121 -12 -8 -59 -22 -104 -30 -93 -18 -117 -28 -125 -53 -2
-10 -8 -188 -12 -396 -5 -272 -10 -377 -18 -374 -34 11 -136 201 -168 314 -20
68 -23 102 -23 263 l0 185 31 45 c120 174 164 408 113 611 -45 179 -138 307
-291 402 -15 9 -62 26 -105 38 -62 17 -95 20 -162 16 l-85 -5 25 19 c48 39
125 72 209 90 111 25 285 20 380 -10z m50 -3416 l0 -906 -127 3 -128 3 -3 903
-2 902 130 0 130 0 0 -905z"/>
</g>
</svg>
